<svg xmlns="http://www.w3.org/2000/svg" xmlns:xlink="http://www.w3.org/1999/xlink" width="500" zoomAndPan="magnify" viewBox="0 0 375 374.999991" height="500" preserveAspectRatio="xMidYMid meet" version="1.0"><defs><g/></defs><g fill="#f4f4f4" fill-opacity="1"><g transform="translate(160.725418, 291.434352)"><g><path d="M 117.734375 -21.859375 C 117.15625 -21.476562 116.390625 -20.707031 116.007812 -20.324219 L 116.007812 -20.515625 L 114.855469 -21.09375 C 114.28125 -19.941406 113.515625 -18.792969 112.746094 -17.640625 C 101.433594 -8.246094 88.585938 -3.644531 74.015625 -3.644531 C 46.976562 -3.644531 29.914062 -30.679688 29.914062 -71.332031 C 29.914062 -112.171875 46.976562 -139.210938 72.289062 -139.210938 C 88.394531 -139.210938 99.902344 -136.140625 112.363281 -125.785156 C 113.515625 -124.445312 114.28125 -123.101562 114.855469 -121.761719 L 116.007812 -122.335938 C 116.390625 -121.761719 117.15625 -121.183594 117.734375 -120.800781 L 119.265625 -120.800781 L 119.265625 -123.675781 C 113.707031 -135.757812 94.914062 -143.8125 74.207031 -143.8125 C 34.898438 -143.8125 9.777344 -114.855469 9.777344 -71.332031 C 9.777344 -27.996094 34.898438 0.957031 74.207031 0.957031 C 94.914062 0.957031 113.515625 -7.09375 119.265625 -18.984375 L 119.265625 -21.859375 Z M 117.734375 -21.859375 "/></g></g></g><g fill="#f4f4f4" fill-opacity="1"><g transform="translate(99.410154, 237.373926)"><g><path d="M 27.421875 -1.917969 C 27.226562 -1.917969 26.84375 -6.902344 26.84375 -14.382812 L 26.84375 -76.890625 L 59.824219 -25.503906 C 72.097656 -6.519531 83.410156 0.957031 99.902344 0.957031 L 106.421875 0.957031 L 106.421875 -2.683594 L 105.460938 -2.683594 C 98.175781 -2.683594 88.585938 -13.230469 71.136719 -40.265625 L 41.035156 -87.4375 L 73.246094 -128.472656 L 73.441406 -128.472656 C 79.191406 -135.949219 83.410156 -140.933594 83.601562 -140.933594 L 83.792969 -140.933594 C 83.792969 -140.933594 83.984375 -141.316406 84.175781 -141.511719 C 84.5625 -142.277344 84.5625 -142.660156 84.5625 -142.851562 L 78.042969 -142.851562 C 77.851562 -142.660156 77.65625 -142.277344 77.464844 -141.894531 C 77.273438 -141.316406 77.082031 -140.933594 77.082031 -140.933594 C 77.082031 -140.933594 76.699219 -140.550781 76.125 -139.785156 C 75.742188 -139.210938 74.972656 -138.25 74.398438 -137.675781 L 26.652344 -76.890625 L 26.652344 -128.472656 C 26.652344 -135.949219 27.035156 -140.933594 27.226562 -140.933594 L 27.421875 -140.933594 L 27.421875 -142.851562 L 8.054688 -142.851562 L 8.054688 -140.933594 L 8.246094 -140.933594 C 8.4375 -140.933594 8.628906 -135.949219 8.628906 -128.472656 L 8.628906 -14.382812 C 8.628906 -6.902344 8.4375 -1.917969 8.246094 -1.917969 L 8.054688 -1.917969 L 8.054688 0 L 27.613281 0 L 27.613281 -1.917969 Z M 27.421875 -1.917969 "/></g></g></g></svg>